<?xml version="1.0" encoding="UTF-8" standalone="no"?>
<!-- Created with Inkscape (http://www.inkscape.org/) -->

<svg
   xmlns:dc="http://purl.org/dc/elements/1.1/"
   xmlns:cc="http://creativecommons.org/ns#"
   xmlns:rdf="http://www.w3.org/1999/02/22-rdf-syntax-ns#"
   xmlns:svg="http://www.w3.org/2000/svg"
   xmlns="http://www.w3.org/2000/svg"
   xmlns:sodipodi="http://sodipodi.sourceforge.net/DTD/sodipodi-0.dtd"
   xmlns:inkscape="http://www.inkscape.org/namespaces/inkscape"
   width="96"
   height="64"
   viewBox="0 0 96.000003 63.999999"
   id="svg3336"
   version="1.1"
   inkscape:version="0.91 r13725"
   sodipodi:docname="sprites.svg"
   inkscape:export-filename="sprites.png"
   inkscape:export-xdpi="90"
   inkscape:export-ydpi="90">
  <defs
     id="defs3338">
    <clipPath
       id="clipPath3401"
       clipPathUnits="userSpaceOnUse">
      <path
         inkscape:connector-curvature="0"
         id="path3403"
         d="M 0,500 1024,500 1024,0 0,0 0,500 Z" />
    </clipPath>
    <clipPath
       id="clipPath3413"
       clipPathUnits="userSpaceOnUse">
      <path
         inkscape:connector-curvature="0"
         id="path3415"
         d="M 0,500 1024,500 1024,0 0,0 0,500 Z" />
    </clipPath>
  </defs>
  <sodipodi:namedview
     id="base"
     pagecolor="#ffffff"
     bordercolor="#666666"
     borderopacity="1.0"
     inkscape:pageopacity="0"
     inkscape:pageshadow="2"
     inkscape:zoom="9.4218397"
     inkscape:cx="47.999995"
     inkscape:cy="32.000114"
     inkscape:document-units="px"
     inkscape:current-layer="g3519"
     showgrid="false"
     units="px"
     inkscape:window-width="1440"
     inkscape:window-height="805"
     inkscape:window-x="0"
     inkscape:window-y="0"
     inkscape:window-maximized="1" />
  <metadata
     id="metadata3341">
    <rdf:RDF>
      <cc:Work
         rdf:about="">
        <dc:format>image/svg+xml</dc:format>
        <dc:type
           rdf:resource="http://purl.org/dc/dcmitype/StillImage" />
        <dc:title></dc:title>
      </cc:Work>
    </rdf:RDF>
  </metadata>
  <g
     inkscape:label="facebook"
     inkscape:groupmode="layer"
     id="layer1"
     transform="translate(0,-988.3622)"
     style="display:inline">
    <g
       transform="matrix(1.25,0,0,-1.25,-308.30414,1265.5791)"
       inkscape:label="FB-fLogo-online-broadcast"
       id="g3371">
      <g
         id="g3409"
         transform="matrix(0.09591859,0,0,0.09591859,234.79225,184.61027)">
        <g
           clip-path="url(#clipPath3413)"
           id="g3411">
          <g
             transform="translate(375.7163,120.5527)"
             id="g3417">
            <path
               inkscape:connector-curvature="0"
               id="path3419"
               style="fill:#3b5998;fill-opacity:1;fill-rule:nonzero;stroke:none"
               d="m 0,0 c 8.134,0 14.73,6.596 14.73,14.73 l 0,237.434 c 0,8.137 -6.596,14.731 -14.73,14.731 l -237.433,0 c -8.137,0 -14.73,-6.594 -14.73,-14.731 l 0,-237.434 c 0,-8.134 6.593,-14.73 14.73,-14.73 L 0,0 Z" />
          </g>
          <g
             transform="translate(307.7046,120.5527)"
             id="g3421">
            <path
               inkscape:connector-curvature="0"
               id="path3423"
               style="fill:#ffffff;fill-opacity:1;fill-rule:nonzero;stroke:none"
               d="m 0,0 0,103.355 34.693,0 5.194,40.28 -39.887,0 0,25.717 c 0,11.662 3.238,19.609 19.962,19.609 l 21.33,0.01 0,36.026 c -3.69,0.49 -16.351,1.587 -31.081,1.587 -30.753,0 -51.806,-18.771 -51.806,-53.244 l 0,-29.705 -34.781,0 0,-40.28 34.781,0 L -41.595,0 0,0 Z" />
          </g>
        </g>
      </g>
      <g
         transform="matrix(0.09591859,0,0,0.09591859,234.79225,159.01027)"
         id="g3838">
        <g
           id="g3840"
           clip-path="url(#clipPath3413)">
          <g
             id="g3842"
             transform="translate(375.7163,120.5527)">
            <path
               d="m 0,0 c 8.134,0 14.73,6.596 14.73,14.73 l 0,237.434 c 0,8.137 -6.596,14.731 -14.73,14.731 l -237.433,0 c -8.137,0 -14.73,-6.594 -14.73,-14.731 l 0,-237.434 c 0,-8.134 6.593,-14.73 14.73,-14.73 L 0,0 Z"
               style="fill:#53709c;fill-opacity:1;fill-rule:nonzero;stroke:none"
               id="path3844"
               inkscape:connector-curvature="0" />
          </g>
          <g
             id="g3846"
             transform="translate(307.7046,120.5527)">
            <path
               d="m 0,0 0,103.355 34.693,0 5.194,40.28 -39.887,0 0,25.717 c 0,11.662 3.238,19.609 19.962,19.609 l 21.33,0.01 0,36.026 c -3.69,0.49 -16.351,1.587 -31.081,1.587 -30.753,0 -51.806,-18.771 -51.806,-53.244 l 0,-29.705 -34.781,0 0,-40.28 34.781,0 L -41.595,0 0,0 Z"
               style="fill:#ffffff;fill-opacity:1;fill-rule:nonzero;stroke:none"
               id="path3848"
               inkscape:connector-curvature="0" />
          </g>
        </g>
      </g>
    </g>
  </g>
  <g
     inkscape:groupmode="layer"
     id="layer2"
     inkscape:label="twitter" />
  <g
     transform="matrix(0.1170489,0,0,-0.1170489,32,29)"
     inkscape:label="ink_ext_XXXXXX"
     id="g3480">
    <g
       transform="scale(0.1,0.1)"
       id="g3482">
      <path
         inkscape:connector-curvature="0"
         id="path3484"
         style="fill:#6aa9e0;fill-opacity:1;fill-rule:nonzero;stroke:none"
         d="m 2733.9,1958.77 c -100.59,-44.61 -208.69,-74.76 -322.15,-88.32 115.81,69.42 204.74,179.34 246.62,310.32 -108.37,-64.28 -228.41,-110.96 -356.17,-136.12 -102.32,109.01 -248.09,177.13 -409.41,177.13 -309.77,0 -560.91,-251.13 -560.91,-560.88 0,-43.96 4.97,-86.77 14.53,-127.82 -466.156,23.39 -879.445,246.69 -1156.09,586.03 -48.281,-82.84 -75.933,-179.18 -75.933,-281.98 0,-194.59 99.019,-366.27 249.519,-466.85 -91.941,2.91 -178.426,28.14 -254.051,70.15 -0.042,-2.34 -0.05,-4.68 -0.05,-7.05 0,-271.76 193.34,-498.458 449.929,-549.982 -47.066,-12.816 -96.621,-19.668 -147.769,-19.668 -36.145,0 -71.281,3.508 -105.527,10.059 71.375,-222.84 278.511,-385 523.953,-389.527 C 638.43,333.832 396.582,244.16 133.801,244.16 88.5273,244.16 43.8789,246.809 0,251.988 248.223,92.8516 543.047,0 859.797,0 1891.48,0 2455.64,854.672 2455.64,1595.86 c 0,24.32 -0.54,48.51 -1.62,72.56 109.58,79.08 204.68,177.87 279.88,290.35" />
    </g>
  </g>
  <g
     inkscape:groupmode="layer"
     id="layer3"
     inkscape:label="github">
    <g
       transform="matrix(1.25,0,0,-1.25,-260.21666,334.17168)"
       inkscape:label="ink_ext_XXXXXX"
       id="g3517">
      <g
         transform="matrix(0.1,0,0,0.1,8.291874,-19.07131)"
         id="g3519">
        <path
           inkscape:connector-curvature="0"
           id="path3523"
           style="fill:#1b1817;fill-opacity:1;fill-rule:evenodd;stroke:none"
           d="m 2638.8027,2860.9278 c -70.6732,0 -127.9882,-57.3071 -127.9882,-128.0039 0,-56.5449 36.6725,-104.5248 87.5361,-121.4584 6.4042,-1.1708 8.7379,2.7817 8.7379,6.1763 0,3.0409 -0.11,11.0873 -0.1728,21.7661 -35.6038,-7.7321 -43.1159,17.1615 -43.1159,17.1615 -5.8226,14.7884 -14.2148,18.7252 -14.2148,18.7252 -11.6217,7.9364 0.8801,7.7792 0.8801,7.7792 12.8475,-0.9036 19.6052,-13.1932 19.6052,-13.1932 11.4175,-19.5582 29.9619,-13.9084 37.254,-10.6317 1.1629,8.2665 4.4711,13.9084 8.125,17.1065 -28.4218,3.2374 -58.3051,14.2148 -58.3051,63.2633 0,13.9791 4.9897,25.3965 13.1776,34.3466 -1.3201,3.2374 -5.7126,16.25 1.2572,33.875 0,0 10.7417,3.4418 35.1952,-13.1147 10.2073,2.8367 21.1611,4.2511 32.0442,4.3061 10.8753,-0.055 21.8212,-1.4694 32.0442,-4.3061 24.4379,16.5565 35.1638,13.1147 35.1638,13.1147 6.9856,-17.625 2.5931,-30.6376 1.2808,-33.875 8.2036,-8.9501 13.154,-20.3675 13.154,-34.3466 0,-49.1742 -29.9304,-59.9944 -58.4386,-63.1611 4.5889,-3.9525 8.6829,-11.7632 8.6829,-23.7071 0,-17.1065 -0.1572,-30.9127 -0.1572,-35.1087 0,-3.4261 2.3102,-7.41 8.8008,-6.1606 50.8244,16.9651 87.4654,64.9056 87.4654,121.4427 0,70.6968 -57.315,128.0039 -128.0118,128.0039" />
        <path
           d="m 2638.8027,2604.9278 c -70.6732,0 -127.9882,-57.3071 -127.9882,-128.0039 0,-56.5449 36.6725,-104.5248 87.5361,-121.4584 6.4042,-1.1708 8.7379,2.7817 8.7379,6.1763 0,3.0409 -0.11,11.0873 -0.1728,21.7661 -35.6038,-7.7321 -43.1159,17.1615 -43.1159,17.1615 -5.8226,14.7884 -14.2148,18.7252 -14.2148,18.7252 -11.6217,7.9364 0.8801,7.7792 0.8801,7.7792 12.8475,-0.9036 19.6052,-13.1932 19.6052,-13.1932 11.4175,-19.5582 29.9619,-13.9084 37.254,-10.6317 1.1629,8.2665 4.4711,13.9084 8.125,17.1065 -28.4218,3.2374 -58.3051,14.2148 -58.3051,63.2633 0,13.9791 4.9897,25.3965 13.1776,34.3466 -1.3201,3.2374 -5.7126,16.25 1.2572,33.875 0,0 10.7417,3.4418 35.1952,-13.1147 10.2073,2.8367 21.1611,4.2511 32.0442,4.3061 10.8753,-0.055 21.8212,-1.4694 32.0442,-4.3061 24.4379,16.5565 35.1638,13.1147 35.1638,13.1147 6.9856,-17.625 2.5931,-30.6376 1.2808,-33.875 8.2036,-8.9501 13.154,-20.3675 13.154,-34.3466 0,-49.1742 -29.9304,-59.9944 -58.4386,-63.1611 4.5889,-3.9525 8.6829,-11.7632 8.6829,-23.7071 0,-17.1065 -0.1572,-30.9127 -0.1572,-35.1087 0,-3.4261 2.3102,-7.41 8.8008,-6.1606 50.8244,16.9651 87.4654,64.9056 87.4654,121.4427 0,70.6968 -57.315,128.0039 -128.0118,128.0039"
           style="fill:#53709c;fill-opacity:1;fill-rule:evenodd;stroke:none"
           id="path3856"
           inkscape:connector-curvature="0" />
      </g>
    </g>
  </g>
  <g
     id="g3850"
     inkscape:label="ink_ext_XXXXXX"
     transform="matrix(0.1170489,0,0,-0.1170489,32,61)">
    <g
       id="g3852"
       transform="scale(0.1,0.1)">
      <path
         d="m 2733.9,1958.77 c -100.59,-44.61 -208.69,-74.76 -322.15,-88.32 115.81,69.42 204.74,179.34 246.62,310.32 -108.37,-64.28 -228.41,-110.96 -356.17,-136.12 -102.32,109.01 -248.09,177.13 -409.41,177.13 -309.77,0 -560.91,-251.13 -560.91,-560.88 0,-43.96 4.97,-86.77 14.53,-127.82 -466.156,23.39 -879.445,246.69 -1156.09,586.03 -48.281,-82.84 -75.933,-179.18 -75.933,-281.98 0,-194.59 99.019,-366.27 249.519,-466.85 -91.941,2.91 -178.426,28.14 -254.051,70.15 -0.042,-2.34 -0.05,-4.68 -0.05,-7.05 0,-271.76 193.34,-498.458 449.929,-549.982 -47.066,-12.816 -96.621,-19.668 -147.769,-19.668 -36.145,0 -71.281,3.508 -105.527,10.059 71.375,-222.84 278.511,-385 523.953,-389.527 C 638.43,333.832 396.582,244.16 133.801,244.16 88.5273,244.16 43.8789,246.809 0,251.988 248.223,92.8516 543.047,0 859.797,0 1891.48,0 2455.64,854.672 2455.64,1595.86 c 0,24.32 -0.54,48.51 -1.62,72.56 109.58,79.08 204.68,177.87 279.88,290.35"
         style="fill:#53709c;fill-opacity:1;fill-rule:nonzero;stroke:none"
         id="path3854"
         inkscape:connector-curvature="0" />
    </g>
  </g>
</svg>
